<?xml version="1.0" encoding="UTF-8" standalone="no"?>
<!-- Created with Inkscape (http://www.inkscape.org/) -->

<svg
   width="99.243271mm"
   height="42.861366mm"
   viewBox="0 0 99.243271 42.861366"
   version="1.1"
   id="svg5"
   inkscape:version="1.2.2 (1:1.2.2+202212051552+b0a8486541)"
   sodipodi:docname="logo.svg"
   inkscape:export-filename="../../../../../../Brainfire/public_html/OpenSource/ornament/assets/logo.png"
   inkscape:export-xdpi="96"
   inkscape:export-ydpi="96"
   xmlns:inkscape="http://www.inkscape.org/namespaces/inkscape"
   xmlns:sodipodi="http://sodipodi.sourceforge.net/DTD/sodipodi-0.dtd"
   xmlns="http://www.w3.org/2000/svg"
   xmlns:svg="http://www.w3.org/2000/svg">
  <sodipodi:namedview
     id="namedview7"
     pagecolor="#ffffff"
     bordercolor="#666666"
     borderopacity="1.0"
     inkscape:showpageshadow="2"
     inkscape:pageopacity="0.0"
     inkscape:pagecheckerboard="0"
     inkscape:deskcolor="#d1d1d1"
     inkscape:document-units="mm"
     showgrid="false"
     inkscape:zoom="1.6819304"
     inkscape:cx="184.6093"
     inkscape:cy="87.399573"
     inkscape:window-width="1920"
     inkscape:window-height="1163"
     inkscape:window-x="0"
     inkscape:window-y="0"
     inkscape:window-maximized="1"
     inkscape:current-layer="layer1" />
  <defs
     id="defs2">
    <rect
       x="71.087456"
       y="277.05005"
       width="1096.684"
       height="589.51367"
       id="rect236" />
  </defs>
  <g
     inkscape:label="Ebene 1"
     inkscape:groupmode="layer"
     id="layer1"
     transform="translate(-46.629872,-88.985699)">
    <g
       aria-label="m
ornament"
       transform="matrix(0.26458333,0,0,0.26458333,-68.269865,11.670923)"
       id="text234"
       style="font-size:85.3333px;line-height:1;letter-spacing:0px;word-spacing:0px;white-space:pre;shape-inside:url(#rect236);display:inline">
      <path
         d="m 805.27446,332.74653 q 0,5.16798 -4.45865,8.20797 -4.45865,3.03999 -10.7413,3.03999 -4.25599,0 -9.42397,-1.51999 -1.92533,-0.608 -6.58664,-2.43199 0,3.24265 -1.11467,5.16798 -1.01333,1.82399 -2.83732,2.22932 -1.52,-5.06665 -5.26932,-8.71463 -5.47198,-5.26932 -13.88262,-5.26932 l -2.33066,0.10133 q 0.304,1.216 0.70933,3.14133 0.50667,1.92532 0.50667,3.54665 0,6.99198 -5.16798,10.53863 -3.95199,2.73599 -8.91731,2.73599 -6.58664,0 -10.63996,-3.74932 -3.95199,-3.85065 -3.95199,-8.51197 0,-1.82399 0.304,-3.44532 0.304,-1.72266 0.912,-2.43199 -3.64799,0 -8.00531,-1.52 -3.03999,-1.11466 -7.19464,-3.34399 -3.54666,2.73599 -4.96532,3.74932 -3.54666,2.63466 -5.16798,3.64799 3.85065,2.93866 6.07998,4.25599 4.15465,2.53332 6.28264,2.53332 0.20267,-0.10133 1.11466,-0.50666 1.01333,-0.50667 1.824,-0.50667 1.72266,0 1.72266,0.912 0,1.31733 -1.72266,1.31733 -2.02666,0 -2.33066,-0.10133 -9.93063,8.9173 -17.83461,12.46396 -6.78931,3.03999 -13.57862,3.03999 -7.29598,0 -12.97062,-2.33066 -3.24266,-1.31733 -5.97865,-3.54666 -1.11466,0.10133 -2.43199,0.20267 -1.216,0 -1.824,0 -13.67995,0 -20.77326,-8.20798 -5.67465,-6.58664 -5.67465,-15.50394 0,-7.70131 5.16798,-12.05863 4.66132,-3.95199 10.94397,-3.95199 4.76265,0 8.3093,3.14132 3.64799,3.03999 3.64799,8.30931 0,2.43199 -1.41866,4.15465 -1.41866,1.72266 -3.85066,1.72266 -1.31732,0 -2.02666,-0.60799 -0.60799,-0.70933 -0.60799,-1.824 0,-1.62133 2.53332,-2.43199 2.63466,-0.912 2.63466,-3.14132 0,-3.74932 -2.63466,-5.77598 -2.53332,-2.128 -6.78931,-2.128 -6.99198,0 -10.7413,4.45866 -3.74932,4.45865 -3.74932,11.85596 0,6.58664 5.67465,12.86929 6.89064,7.59997 17.53061,7.59997 2.22932,0 4.66132,-0.304 -2.128,-1.92532 -3.34399,-4.66131 -1.11467,-2.83733 -1.11467,-5.06665 0,-2.53333 1.62133,-4.45866 2.02666,-2.33066 5.57332,-2.33066 2.73599,0 2.73599,2.128 0,1.21599 -1.52,1.21599 -0.40533,0 -1.21599,-0.40533 -0.81067,-0.40533 -1.216,-0.40533 -2.12799,0 -3.44532,1.11466 -1.216,1.01333 -1.216,3.44532 0,2.736 1.52,5.26932 1.51999,2.43199 3.64799,4.15465 5.97864,-1.21599 18.94927,-8.3093 4.25598,-2.33066 11.85596,-6.89065 -1.824,-1.41866 -4.35732,-2.53332 -2.43199,-1.11466 -4.15465,-1.11466 0.40533,-0.40534 1.51999,-0.912 1.216,-0.608 2.22933,-0.608 3.03999,0 5.06665,0.912 0.10133,0 3.34399,2.02666 l 10.63996,-6.58665 q -5.97865,-3.14132 -10.33596,-5.06665 -8.41064,-3.74932 -13.98396,-3.74932 -4.66132,0 -7.09331,2.12799 -2.43199,2.128 -2.43199,5.47199 0,3.85065 3.03999,4.86398 3.03999,1.01333 3.03999,1.72266 0,1.824 -2.33066,1.824 -1.92533,0 -3.54665,-2.02666 -1.62133,-2.128 -1.62133,-5.57332 0,-5.97865 6.18131,-8.6133 4.25599,-1.824 9.8293,-1.824 7.70131,0 15.30128,3.14132 4.76266,2.33066 9.62664,4.66132 2.12799,-1.11466 3.85065,-1.82399 6.28265,-2.73599 13.67996,-2.73599 8.6133,0 14.08529,3.95198 2.93865,2.128 5.06665,5.77599 0.70933,0 1.72266,-0.10134 1.01333,-0.10133 2.22932,-0.10133 6.07998,0 14.28796,1.92533 8.20797,1.82399 16.31461,3.74932 8.20797,1.82399 12.56529,1.82399 4.86398,0 7.19464,-1.31733 2.432,-1.31733 2.432,-4.55998 0,-1.01333 -0.50667,-1.824 -0.50666,-0.81066 -0.50666,-1.01333 0,-0.70933 0.60799,-0.70933 1.216,0 1.216,2.93866 z M 640.10167,309.84527 q 0,0.70933 -0.912,2.53333 -1.01333,-1.01333 -2.73599,-1.824 -1.72266,-0.81066 -3.64799,-0.81066 -4.66132,0 -8.0053,3.34399 -3.74933,3.74932 -3.74933,9.72797 0,2.12799 2.33066,8.0053 1.11467,2.83733 1.11467,5.47198 0,3.44533 -1.11467,5.57332 -0.304,0.50666 -2.33066,3.44532 h -1.31732 q -1.824,-2.83732 -2.53333,-4.45865 -0.608,-1.72266 -0.608,-4.55999 0,-2.83732 2.128,-8.3093 1.11466,-2.83733 1.11466,-5.16798 0,-5.87732 -3.54666,-9.42397 -3.44532,-3.64799 -8.0053,-3.64799 -2.02666,0 -3.54666,0.70933 -1.51999,0.70933 -2.73599,1.92533 -0.40533,-0.608 -0.70933,-1.216 -0.20267,-0.608 -0.20267,-1.31733 0,-3.03999 2.432,-4.66132 2.53332,-1.62132 5.87731,-1.62132 2.93866,0 4.96532,0.60799 0.70933,-5.16798 2.53332,-8.10664 1.11466,-1.82399 3.64799,-3.85065 2.53332,1.92533 3.74932,3.85065 1.72266,2.83733 2.43199,8.10664 0.608,-0.20266 2.22933,-0.40533 1.72266,-0.20266 2.93866,-0.20266 3.24265,0 5.67464,1.62132 2.53333,1.62133 2.53333,4.66132 z m -27.96791,22.29326 q 0,8.91731 -5.57331,15.40262 -7.09331,8.3093 -20.8746,8.3093 -1.01333,0 -2.02666,0 -1.52,-0.20266 -2.22933,-0.20266 -2.83732,2.33066 -5.87731,3.54665 -5.57332,2.33066 -13.07196,2.33066 -6.78931,0 -13.47729,-2.93866 -7.80264,-3.44532 -17.93594,-12.56529 -0.304,0.10134 -2.33066,0.10134 -1.72266,0 -1.72266,-1.31733 0,-0.912 1.72266,-0.912 0.81067,0 1.72266,0.50666 1.01333,0.40534 1.216,0.50667 2.22932,0 6.18131,-2.43199 2.02666,-1.216 6.18131,-4.35732 -1.82399,-1.216 -5.06665,-3.54666 -0.40533,-0.304 -5.06665,-3.85065 -3.54665,1.92533 -7.7013,3.44532 -4.05332,1.41866 -7.49865,1.41866 0.40534,0.50667 0.81067,2.432 0.40533,1.92532 0.40533,3.44532 0,4.76265 -3.74932,8.3093 -4.15465,3.95199 -10.84263,3.95199 -4.96532,0 -8.81597,-2.63466 -5.26932,-3.64799 -5.26932,-10.63996 0,-2.02666 0.50667,-4.25599 0.60799,-2.02666 0.70933,-2.43199 l -2.33066,-0.10133 q -8.51197,0 -13.88262,5.16798 -3.74932,3.54665 -5.26932,8.81597 -1.82399,-0.40533 -2.93866,-2.22933 -1.01333,-1.92532 -1.01333,-5.16798 -3.64798,1.41866 -6.58664,2.33066 -5.47198,1.62133 -9.42397,1.62133 -6.28265,0 -10.53863,-2.83733 -4.66132,-3.14132 -4.66132,-8.41063 0,-2.93866 1.216,-2.93866 0.60799,0 0.60799,0.70933 0,0.20267 -0.50666,1.01333 -0.50667,0.81066 -0.50667,1.82399 0,3.14133 2.432,4.55999 2.43199,1.31733 7.19464,1.31733 4.76265,0 12.66662,-1.824 8.00531,-1.82399 16.41595,-3.74932 8.41064,-1.92532 14.08529,-1.92532 1.01333,0 2.02666,0 1.31733,0.20266 1.92532,0.20266 2.128,-3.64799 5.06665,-5.77598 5.47199,-3.95199 14.08529,-3.95199 6.58665,0 11.6533,1.824 4.66131,2.22932 5.87731,2.73599 5.47198,-2.83733 9.62664,-4.55999 7.80264,-3.24265 15.30128,-3.24265 5.77598,0 9.72797,1.72266 6.28264,2.73599 6.28264,8.71464 0,3.44532 -1.62133,5.57331 -1.51999,2.02666 -3.54665,2.02666 -2.33066,0 -2.33066,-1.82399 0,-0.608 3.03999,-1.62133 3.03999,-1.01333 3.03999,-4.96532 0,-3.34399 -2.43199,-5.47198 -2.43199,-2.12799 -7.09331,-2.12799 -5.67465,0 -13.88262,3.64799 -5.26932,2.63465 -10.4373,5.16798 l 10.63996,6.58664 q 3.24266,-2.02666 3.34399,-2.02666 2.02666,-0.91199 5.06665,-0.91199 1.216,0 2.22933,0.50666 1.01333,0.40533 1.51999,1.01333 -1.92532,0 -4.15465,1.01333 -2.22933,0.912 -4.35732,2.63466 2.93866,1.72266 5.87732,3.44532 6.78931,3.95199 12.76795,6.89065 8.20798,4.05332 12.15996,4.86398 2.22933,-1.82399 3.64799,-4.15465 1.52,-2.432 1.52,-5.26932 0,-2.43199 -1.216,-3.44532 -1.216,-1.11466 -3.44532,-1.11466 -0.40533,0 -1.216,0.40533 -0.81066,0.40533 -1.21599,0.40533 -1.52,0 -1.52,-1.216 0,-2.12799 2.73599,-2.12799 3.44532,0 5.47198,2.33066 1.72267,2.02666 1.72267,4.45865 0,2.22933 -1.11467,4.96532 -1.11466,2.73599 -3.34399,4.76265 2.432,0.304 4.66132,0.304 10.63997,0 17.53061,-7.59998 5.67465,-6.28264 5.67465,-12.86929 0,-7.29597 -3.74932,-11.75463 -3.74932,-4.55998 -10.7413,-4.55998 -4.25599,0 -6.89064,2.12799 -2.53333,2.02666 -2.53333,5.77598 0,2.33066 2.53333,3.24266 2.63465,0.81066 2.63465,2.33066 0,1.31733 -0.91199,1.92533 -0.912,0.50666 -1.72266,0.50666 -2.432,0 -3.85066,-1.72266 -1.41866,-1.72266 -1.41866,-4.15465 0,-5.26932 3.54665,-8.30931 3.64799,-3.14132 8.41064,-3.14132 6.28265,0 10.84263,3.85065 5.26932,4.45865 5.26932,12.15996 z m 135.98889,8.30931 q 0,-2.02666 -0.40533,-3.85066 -0.304,-1.92532 -1.216,-3.14132 -4.66132,0 -6.68798,1.72266 -2.02666,1.62133 -2.02666,4.86399 0,2.73599 -2.22932,2.73599 -1.216,0 -1.72267,-0.50667 -0.50666,-0.50666 -0.50666,-2.12799 0,-2.33066 3.64799,-4.86399 3.74932,-2.53332 8.81597,-3.14132 -2.02666,-3.64799 -5.77598,-5.97865 -4.76265,-2.93865 -11.14663,-2.93865 -2.83733,0 -6.38398,0.70933 -5.47198,1.11466 -10.1333,3.74932 4.66132,2.63466 6.68798,3.74932 3.44532,1.92533 6.48531,2.83732 -0.912,1.01333 -1.62133,2.93866 -0.70933,1.92533 -0.70933,3.85066 0,5.06665 3.54665,8.20797 3.54666,3.14132 9.11997,3.14132 4.66132,0 8.00531,-2.53332 4.25599,-3.24266 4.25599,-9.42397 z m -40.02654,5.37065 q -0.40533,0.10133 -1.11466,0.10133 -5.06665,0 -13.37596,-5.57332 -5.47198,3.74933 -12.36262,7.39731 -10.84263,5.67465 -19.05061,7.49865 2.33066,2.02666 6.68798,3.44532 4.45865,1.41866 8.10664,1.41866 6.99198,0 12.36263,-1.92533 5.47198,-2.02666 10.33596,-5.47198 2.02666,-1.41866 8.41064,-6.89064 z m -129.19957,9.62663 q -6.48532,-1.41866 -14.38929,-5.16798 -9.2213,-4.35732 -17.02394,-9.72797 -8.30931,5.57332 -13.37596,5.57332 -0.70933,0 -1.11466,-0.10134 6.07998,5.16799 8.3093,6.78931 5.06665,3.64799 9.8293,5.37065 5.87732,2.128 12.97063,2.128 3.44532,0 8.00531,-1.41867 4.55998,-1.51999 6.78931,-3.44532 z M 528.7367,327.88255 q -3.54665,-2.02666 -8.10664,-3.24266 -4.45865,-1.216 -8.41064,-1.216 -6.48531,0 -11.04529,2.83733 -3.74933,2.33066 -5.87732,6.07998 5.16798,0.608 8.81597,3.03999 3.64799,2.43199 3.64799,4.96531 0,1.216 -0.40533,1.92533 -0.40533,0.70933 -1.824,0.70933 -2.22932,0 -2.22932,-2.73599 0,-3.14132 -2.02666,-4.86398 -2.02666,-1.72266 -6.68798,-1.72266 -0.70933,1.01333 -1.216,3.24265 -0.40533,2.128 -0.40533,3.74932 0,6.07998 4.25599,9.32264 3.44532,2.63466 8.00531,2.63466 5.67464,0 9.11997,-3.03999 3.54665,-3.14133 3.54665,-8.30931 0,-1.82399 -0.81066,-3.74932 -0.70933,-2.02666 -1.52,-3.03999 3.34399,-1.01333 6.48531,-2.73599 4.15466,-2.43199 6.68798,-3.85065 z m 91.60503,48.03184 q -2.63465,-4.25599 -3.34399,-5.97865 -1.41866,-3.54665 -1.41866,-8.20797 h -0.40533 q -0.70933,1.31733 -2.22933,2.12799 -1.41866,0.70933 -2.73599,0.70933 -1.41866,0 -2.83732,-0.608 -1.31733,-0.60799 -2.53333,-2.22932 2.02666,0 3.74933,-0.912 2.33065,-1.216 3.74932,-3.74932 0.50666,-0.912 2.12799,-5.06665 2.22933,-5.57332 4.76265,-5.57332 h 2.33066 q 2.22933,0 3.95199,3.74933 1.41866,3.44532 2.93865,6.89064 1.52,2.63466 3.44533,3.64799 1.92532,1.01333 4.05332,1.01333 -1.216,1.62133 -2.63466,2.22932 -1.31733,0.608 -2.73599,0.608 -1.216,0 -2.73599,-0.70933 -1.52,-0.81066 -2.22933,-2.12799 h -0.40533 q 0,4.55998 -1.41866,8.10664 -0.81067,2.02666 -3.44533,6.07998 z"
         style="font-size:101.333px"
         id="path521" />
      <path
         d="m 476.56008,433.92904 c 0,-11.00667 -9.70667,-20.19334 -21.14668,-20.19334 -11.44,0 -21.14667,9.18667 -21.14667,20.19334 0,11.09333 9.70667,20.28001 21.14667,20.28001 11.44001,0 21.14668,-9.18668 21.14668,-20.28001 z m -7.10667,0 c 0,7.88667 -4.07333,16.9 -14.04001,16.9 -9.96667,0 -14.04,-9.01333 -14.04,-16.9 0,-7.88667 4.07333,-16.90001 14.04,-16.90001 9.96668,0 14.04001,9.01334 14.04001,16.90001 z"
         style="font-size:86.6667px;font-family:MrsEavesFractions;-inkscape-font-specification:MrsEavesFractions;text-align:center;text-anchor:middle"
         id="path523" />
      <path
         d="m 510.53337,425.9557 c 0,4.24667 -2.51334,7.45334 -7.10667,7.45334 h -4.94001 v -15.08001 h 4.94001 c 4.59333,0 7.10667,3.20667 7.10667,7.62667 z m -3.72667,10.48667 c 6.32667,-0.78 10.48667,-5.2 10.48667,-10.48667 0,-6.32667 -5.2,-10.74667 -13.86667,-10.74667 h -17.94001 v 1.73333 c 5.98,0 6.84667,1.21334 6.84667,10.05334 v 13.86667 c 0,8.84001 -0.86667,10.14001 -6.84667,10.14001 v 1.73333 h 19.84667 v -1.73333 c -5.89333,0 -6.84667,-1.3 -6.84667,-10.14001 v -4.24667 h 2.42667 l 11.78667,16.12001 h 11.09334 v -1.73333 c -3.9,-0.60667 -7.8,-3.55334 -11.61334,-8.06001 z"
         style="font-size:86.6667px;font-family:MrsEavesFractions;-inkscape-font-specification:MrsEavesFractions;text-align:center;text-anchor:middle"
         id="path525" />
      <path
         d="m 534.36659,440.86237 c 0,8.84001 -0.86666,10.14001 -6.84667,10.14001 v 1.73333 h 16.90001 v -1.73333 c -5.89334,0 -6.84667,-1.3 -6.84667,-10.14001 V 423.8757 l 25.22001,30.24668 h 1.64667 V 426.9957 c 0,-8.84 0.95333,-10.05334 6.84667,-10.05334 v -1.73333 H 554.3866 v 1.73333 c 5.98,0 6.84667,1.21334 6.84667,10.05334 v 15.60001 l -23.05334,-27.38668 h -10.66001 v 1.73333 c 5.98001,0 6.84667,1.21334 6.84667,10.05334 z"
         style="font-size:86.6667px;font-family:MrsEavesFractions;-inkscape-font-specification:MrsEavesFractions;text-align:center;text-anchor:middle"
         id="path527" />
      <path
         d="m 601.01301,440.34237 1.73333,3.98667 c 0.78,1.82 1.12667,3.12 1.12667,3.98667 0,1.99333 -1.64667,2.6 -5.80667,2.6 v 1.82 h 19.41334 v -1.82 c -4.59333,0 -5.54667,-0.86667 -8.49334,-7.54 l -12.74,-29.64001 H 595.033 l -12.74,29.64001 c -2.86,6.76 -3.55334,7.54 -8.92667,7.54 v 1.82 h 16.38001 v -1.82 c -4.42001,0 -5.98001,-0.60667 -5.98001,-2.34 0,-0.78 0.43334,-2.25333 1.3,-4.24667 l 1.73334,-3.98667 z m -12.82667,-3.20667 5.72,-13.26 5.72,13.26 z"
         style="font-size:86.6667px;font-family:MrsEavesFractions;-inkscape-font-specification:MrsEavesFractions;text-align:center;text-anchor:middle"
         id="path529" />
      <path
         d="m 645.21302,454.20905 h 1.21333 l 13.08667,-29.55335 v 16.20667 c 0,8.84001 -0.86666,10.14001 -6.84667,10.14001 v 1.73333 h 19.84668 v -1.73333 c -5.89334,0 -6.93334,-1.38667 -6.93334,-10.14001 V 426.9957 c 0,-8.75334 1.04,-10.05334 6.93334,-10.05334 v -1.73333 h -12.13334 l -12.82667,28.94668 -12.91334,-28.94668 h -13.00001 v 1.73333 c 5.98001,0 6.84667,1.21334 6.84667,10.05334 v 13.86667 c 0,8.84001 -0.86666,10.14001 -6.84667,10.14001 v 1.73333 h 16.90001 v -1.73333 c -5.89333,0 -6.84667,-1.3 -6.84667,-10.14001 v -17.33334 z"
         style="font-size:86.6667px;font-family:MrsEavesFractions;-inkscape-font-specification:MrsEavesFractions;text-align:center;text-anchor:middle"
         id="path531" />
      <path
         d="m 700.24633,449.52904 c -5.98,0 -6.84667,-1.21333 -6.84667,-10.05333 v -5.02667 h 0.52 c 8.75334,0 9.36,0.95333 9.36,6.84667 H 705.013 V 424.3957 h -1.73334 c 0,6.06667 -0.52,6.84667 -9.36,6.84667 h -0.52 v -12.91334 h 5.80667 c 3.72667,0 6.15333,0.43333 7.36667,1.21333 1.21333,0.78 2.08,2.16667 2.6,4.33334 l 0.43333,1.73333 h 1.82 l -0.69333,-10.4 h -11.18001 -19.15334 v 1.73333 c 5.98001,0 6.84667,1.21334 6.84667,10.05334 v 13.86667 c 0,8.84001 -0.86666,10.14001 -6.84667,10.14001 v 1.73333 H 712.813 l 0.69333,-10.48667 H 711.773 l -0.43333,1.73333 c -0.60667,2.16667 -1.47334,3.64001 -2.68667,4.42001 -1.12667,0.78 -3.64,1.12666 -7.36667,1.12666 z"
         style="font-size:86.6667px;font-family:MrsEavesFractions;-inkscape-font-specification:MrsEavesFractions;text-align:center;text-anchor:middle"
         id="path533" />
      <path
         d="m 728.41287,440.86237 c 0,8.84001 -0.86666,10.14001 -6.84667,10.14001 v 1.73333 h 16.90001 v -1.73333 c -5.89334,0 -6.84667,-1.3 -6.84667,-10.14001 V 423.8757 l 25.22001,30.24668 h 1.64667 V 426.9957 c 0,-8.84 0.95333,-10.05334 6.84667,-10.05334 v -1.73333 h -16.90001 v 1.73333 c 5.98,0 6.84667,1.21334 6.84667,10.05334 v 15.60001 L 732.22621,415.20903 H 721.5662 v 1.73333 c 5.98001,0 6.84667,1.21334 6.84667,10.05334 z"
         style="font-size:86.6667px;font-family:MrsEavesFractions;-inkscape-font-specification:MrsEavesFractions;text-align:center;text-anchor:middle"
         id="path535" />
      <path
         d="m 786.47941,440.86237 c 0,8.75334 -1.04,10.14001 -6.93334,10.14001 v 1.73333 h 19.93335 v -1.73333 c -5.89334,0 -6.93334,-1.38667 -6.93334,-10.14001 v -22.27334 h 4.50667 c 3.72667,0 6.24,0.34667 7.36667,1.12667 1.21333,0.78 2.08,2.25333 2.68666,4.42 l 0.43334,1.73333 h 1.82 l -0.60667,-10.66 H 770.0994 l -0.52,10.66 h 1.73334 l 0.43333,-1.73333 c 1.21333,-4.50667 1.82,-5.28667 9.70667,-5.54667 h 5.02667 z"
         style="font-size:86.6667px;font-family:MrsEavesFractions;-inkscape-font-specification:MrsEavesFractions;text-align:center;text-anchor:middle"
         id="path537" />
    </g>
  </g>
</svg>
